# xmcd
#
# Track frame offsets:
# 150
# 19345
# 39979
# 52857
# 77315
# 95082
# 111233
# 124886
# 144763
# 158505
# 192091
#
# Disc length: 2877 seconds
#
# Revision: 1
# Processed by: cddbd v1.4PL0 Copyright (c) Steve Scherf et al.
# Submitted via: CedeCatalogueitor 2.5 http://usuarios.lycos.es/kakasboy
#
DISCID=7e0b3b0b
DTITLE=Arima Beltza - Blues Sustraia
DYEAR=2002
DGENRE=
TTITLE0=Zeurea Da
TTITLE1=Blues Sustraia
TTITLE2=Benetan
TTITLE3=Whole Lotta Love
TTITLE4=Maita Nazazu
TTITLE5=Kaxa
TTITLE6=Nire Alboan
TTITLE7=Jainkoen Lorategian
TTITLE8=Keinua
TTITLE9=Zazpi Kolore
TTITLE10=Lehen Diskoko "Blues Oihartzuna" Kantaren Klipa
EXTD=
EXTT0=
EXTT1=
EXTT2=
EXTT3=
EXTT4=
EXTT5=
EXTT6=
EXTT7=
EXTT8=
EXTT9=
EXTT10=
PLAYORDER=
